<svg xmlns="http://www.w3.org/2000/svg" viewBox="0 0 400 400" role="img" aria-label="Brassiere Impact">
  <defs>
    <radialGradient id="glow" cx="50%" cy="38%" r="65%">
      <stop offset="0%" stop-color="#2a1510"/><stop offset="55%" stop-color="#16110f"/><stop offset="100%" stop-color="#0d0d10"/>
    </radialGradient>
    <linearGradient id="acc" x1="0" y1="0" x2="1" y2="1">
      <stop offset="0%" stop-color="#ff4d2e"/><stop offset="100%" stop-color="#ff9a3c"/>
    </linearGradient>
  </defs>
  <rect width="400" height="400" fill="url(#glow)"/>
  <ellipse cx="200" cy="305" rx="120" ry="16" fill="#000" opacity="0.5"/>
  <ellipse cx="200" cy="303" rx="120" ry="14" fill="url(#acc)" opacity="0.12"/>
  <g transform="translate(200,195)"><path d="M-75,-60 Q-80,10 -45,45 Q-20,68 0,68 Q20,68 45,45 Q80,10 75,-60 L45,-60 Q45,-20 0,-12 Q-45,-20 -45,-60 Z" fill="#1c1c22" stroke="#3a3a44" stroke-width="3"/><path d="M-75,-60 L-45,-60 M45,-60 L75,-60" stroke="url(#acc)" stroke-width="10" stroke-linecap="round"/><path d="M-45,52 Q0,74 45,52" stroke="url(#acc)" stroke-width="8" fill="none" stroke-linecap="round"/></g>
  <text x="200" y="368" text-anchor="middle" fill="#a3a3ad" font-family="Arial, sans-serif" font-size="17" font-weight="bold" letter-spacing="3">BRASSIERE IMPACT</text>
</svg>
