<svg xmlns="http://www.w3.org/2000/svg" viewBox="0 0 400 400" role="img" aria-label="Court Pro Mid">
  <defs>
    <radialGradient id="glow" cx="50%" cy="38%" r="65%">
      <stop offset="0%" stop-color="#2a1510"/><stop offset="55%" stop-color="#16110f"/><stop offset="100%" stop-color="#0d0d10"/>
    </radialGradient>
    <linearGradient id="acc" x1="0" y1="0" x2="1" y2="1">
      <stop offset="0%" stop-color="#ff4d2e"/><stop offset="100%" stop-color="#ff9a3c"/>
    </linearGradient>
  </defs>
  <rect width="400" height="400" fill="url(#glow)"/>
  <ellipse cx="200" cy="305" rx="120" ry="16" fill="#000" opacity="0.5"/>
  <ellipse cx="200" cy="303" rx="120" ry="14" fill="url(#acc)" opacity="0.12"/>
  <g transform="translate(200,195)"><path d="M-100,50 L-92,-40 Q-90,-52 -76,-50 L-40,-42 Q-30,-40 -26,-30 L-6,10 Q0,20 12,24 L82,44 Q104,50 104,58 L104,64 Q104,72 92,72 L-88,72 Q-100,72 -100,60 Z" fill="#1c1c22" stroke="#3a3a44" stroke-width="3"/><path d="M-100,56 L104,56 L104,64 Q104,72 92,72 L-88,72 Q-100,72 -100,60 Z" fill="#e8e8e6"/><path d="M-70,-44 L-58,30" stroke="url(#acc)" stroke-width="7" stroke-linecap="round"/><circle cx="40" cy="34" r="12" fill="url(#acc)"/></g>
  <text x="200" y="368" text-anchor="middle" fill="#a3a3ad" font-family="Arial, sans-serif" font-size="17" font-weight="bold" letter-spacing="3">COURT PRO MID</text>
</svg>
