<svg xmlns="http://www.w3.org/2000/svg" viewBox="0 0 400 400" role="img" aria-label="Maillot Match">
  <defs>
    <radialGradient id="glow" cx="50%" cy="38%" r="65%">
      <stop offset="0%" stop-color="#2a1510"/><stop offset="55%" stop-color="#16110f"/><stop offset="100%" stop-color="#0d0d10"/>
    </radialGradient>
    <linearGradient id="acc" x1="0" y1="0" x2="1" y2="1">
      <stop offset="0%" stop-color="#ff4d2e"/><stop offset="100%" stop-color="#ff9a3c"/>
    </linearGradient>
  </defs>
  <rect width="400" height="400" fill="url(#glow)"/>
  <ellipse cx="200" cy="305" rx="120" ry="16" fill="#000" opacity="0.5"/>
  <ellipse cx="200" cy="303" rx="120" ry="14" fill="url(#acc)" opacity="0.12"/>
  <g transform="translate(200,195)"><path d="M-45,-85 L-18,-95 Q0,-80 18,-95 L45,-85 L85,-55 L62,-22 L48,-32 L48,80 Q48,92 36,92 L-36,92 Q-48,92 -48,80 L-48,-32 L-62,-22 L-85,-55 Z" fill="#c22a1c" stroke="#e8482f" stroke-width="3"/><path d="M-18,-95 Q0,-80 18,-95 Q10,-70 0,-70 Q-10,-70 -18,-95 Z" fill="#0d0d10"/><text x="0" y="30" text-anchor="middle" fill="#fff" font-family="Arial" font-size="52" font-weight="bold">10</text></g>
  <text x="200" y="368" text-anchor="middle" fill="#a3a3ad" font-family="Arial, sans-serif" font-size="17" font-weight="bold" letter-spacing="3">MAILLOT MATCH</text>
</svg>
