<svg xmlns="http://www.w3.org/2000/svg" viewBox="0 0 400 400" role="img" aria-label="Pulse Runner">
  <defs>
    <radialGradient id="glow" cx="50%" cy="38%" r="65%">
      <stop offset="0%" stop-color="#2a1510"/><stop offset="55%" stop-color="#16110f"/><stop offset="100%" stop-color="#0d0d10"/>
    </radialGradient>
    <linearGradient id="acc" x1="0" y1="0" x2="1" y2="1">
      <stop offset="0%" stop-color="#ff4d2e"/><stop offset="100%" stop-color="#ff9a3c"/>
    </linearGradient>
  </defs>
  <rect width="400" height="400" fill="url(#glow)"/>
  <ellipse cx="200" cy="305" rx="120" ry="16" fill="#000" opacity="0.5"/>
  <ellipse cx="200" cy="303" rx="120" ry="14" fill="url(#acc)" opacity="0.12"/>
  <g transform="translate(200,195)"><path d="M-110,45 L-85,-15 Q-78,-32 -60,-28 L-20,-16 Q-5,-12 5,-2 L55,28 Q95,38 108,48 L108,62 Q108,70 96,70 L-98,70 Q-110,70 -110,58 Z" fill="#26262e" stroke="#3a3a44" stroke-width="3"/><path d="M-110,52 L108,52 L108,62 Q108,70 96,70 L-98,70 Q-110,70 -110,58 Z" fill="url(#acc)"/><path d="M-52,-24 L-8,38" stroke="#0d0d10" stroke-width="5" stroke-linecap="round"/><path d="M-34,-19 L4,30" stroke="#0d0d10" stroke-width="5" stroke-linecap="round"/><circle cx="60" cy="30" r="14" fill="none" stroke="url(#acc)" stroke-width="6"/></g>
  <text x="200" y="368" text-anchor="middle" fill="#a3a3ad" font-family="Arial, sans-serif" font-size="17" font-weight="bold" letter-spacing="3">PULSE RUNNER</text>
</svg>
